<?xml version="1.0" encoding="utf-8"?>
<!-- Generator: Adobe Illustrator 19.0.0, SVG Export Plug-In . SVG Version: 6.00 Build 0)  -->
<svg version="1.1" id="隔离模式" xmlns="http://www.w3.org/2000/svg" xmlns:xlink="http://www.w3.org/1999/xlink" x="0px"
	 y="0px" viewBox="409 -94.1 1414 1028" style="enable-background:new 409 -94.1 1414 1028;" xml:space="preserve">
<style type="text/css">
	.st0{opacity:0.3;}
	.st1{fill:#758189;}
	.st2{fill:none;}
	.st3{fill:#505868;}
	.st4{opacity:0.5;fill:#3F4447;enable-background:new    ;}
	.st5{opacity:0.5;}
	.st6{opacity:0.58;fill:none;stroke:#758189;stroke-width:0.5;stroke-miterlimit:10;enable-background:new    ;}
	.st7{opacity:0.3;fill:#758189;enable-background:new    ;}
	.st8{opacity:0.5;fill:#758189;enable-background:new    ;}
	.st9{opacity:0.4;fill:#758189;enable-background:new    ;}
	.st10{opacity:0;enable-background:new    ;}
</style>
<g id="XMLID_417_">
	<g id="XMLID_450_">
		<g id="XMLID_459_" class="st0">
			<rect id="XMLID_460_" x="739.1" y="148.7" class="st1" width="681.9" height="31.5"/>
		</g>
		<g id="XMLID_457_" class="st0">
			<rect id="XMLID_458_" x="739.1" y="209.5" class="st1" width="681.9" height="31.5"/>
		</g>
		<g id="XMLID_455_">
			<rect id="XMLID_456_" x="1298" y="157.7" class="st1" width="21" height="15.3"/>
		</g>
		<g id="XMLID_453_">
			<rect id="XMLID_454_" x="1334.3" y="157.7" class="st1" width="21" height="15.3"/>
		</g>
		<g id="XMLID_451_">
			<rect id="XMLID_452_" x="1370.8" y="157.7" class="st1" width="21" height="15.3"/>
		</g>
	</g>
	<path id="XMLID_420_" class="st2" d="M778.3,414.7h-196c-2,0-3.7,1.7-3.7,3.8v329c0,2.1,1.6,3.8,3.7,3.8h196c2,0,3.7-1.7,3.7-3.8
		v-329C782,416.4,780.4,414.7,778.3,414.7z"/>
	<path id="XMLID_449_" class="st3" d="M771.8,375.1H588.9c-13.3,0-24.2,10.8-24.2,24.2v407.2c0,13.3,10.8,24.2,24.2,24.2h182.9
		c13.3,0,24.2-10.8,24.2-24.2V399.3C795.9,386,785.1,375.1,771.8,375.1z M680.3,387.9c4.2,0,7.6,3.4,7.6,7.6s-3.4,7.6-7.6,7.6
		s-7.6-3.4-7.6-7.6S676.1,387.9,680.3,387.9z M680.3,804.2c-11.4,0-20.6-9.2-20.6-20.6c0-11.4,9.2-20.6,20.6-20.6
		c11.4,0,20.6,9.2,20.6,20.6C700.9,795,691.7,804.2,680.3,804.2z M782,747.5c0,2.1-1.6,3.8-3.7,3.8h-196c-2,0-3.7-1.7-3.7-3.8v-329
		c0-2.1,1.6-3.8,3.7-3.8h196c2,0,3.7,1.7,3.7,3.8V747.5z"/>
	<path id="XMLID_466_" class="st4" d="M680.3,763c-11.4,0-20.6,9.2-20.6,20.6c0,11.4,9.2,20.6,20.6,20.6c11.4,0,20.6-9.2,20.6-20.6
		C700.9,772.2,691.7,763,680.3,763z"/>
	<path id="XMLID_467_" class="st4" d="M680.3,403.1c4.2,0,7.6-3.4,7.6-7.6s-3.4-7.6-7.6-7.6s-7.6,3.4-7.6,7.6
		S676.1,403.1,680.3,403.1z"/>
	<g id="XMLID_369_">
		<g id="XMLID_414_" class="st5">
			<path id="XMLID_415_" class="st3" d="M1174.1,807.1h-152.3c-1.3,0-2.4-0.6-3.2-1.6c-0.7-1-0.9-2.3-0.5-3.5l33.9-100.1
				c0.5-1.6,2-2.6,3.7-2.6h241.9c1.7,0,3.3,1.1,3.7,2.8l28.9,100.1c0.3,1.2,0.1,2.4-0.6,3.4s-1.9,1.5-3.1,1.5L1174.1,807.1z"/>
		</g>
		<g id="XMLID_410_">
			<path id="XMLID_412_" class="st3" d="M1357.8,830.6H990.3c-9.7,0-17.6-7.9-17.6-17.6s7.9-17.6,17.6-17.6h367.6
				c9.7,0,17.6,7.9,17.6,17.6C1375.5,822.7,1367.6,830.6,1357.8,830.6z"/>
		</g>
		<g id="XMLID_395_">
			<path id="XMLID_407_" class="st3" d="M1653.3,69H694.6c-17.6,0-31.9,14.3-31.9,31.9v256.8h39.9V116.5c0-2.2,1.8-4.1,4.1-4.1
				h934.5c2.2,0,4.1,1.8,4.1,4.1v504.7c0,2.2-1.8,4.1-4.1,4.1H814.8v105.6h838.5c17.6,0,31.9-14.3,31.9-31.9V100.9
				C1685.3,83.3,1671,69,1653.3,69z"/>
		</g>
	</g>
	<line id="XMLID_2_" class="st6" x1="822.2" y1="565.8" x2="1615.3" y2="565.8"/>
	<g id="XMLID_3_">
		<polyline id="XMLID_4_" class="st7" points="1297.1,316.3 928.9,361.1 1091,459.4 1297.1,316.3 		"/>
		<polyline id="XMLID_5_" class="st8" points="1297.1,316.3 1091,459.4 1069.4,523.1 1297.1,316.3 		"/>
		<polyline id="XMLID_6_" class="st9" points="928.9,361.1 1091,459.4 1069.4,523.1 928.9,361.1 		"/>
	</g>
	<g id="XMLID_7_">
		<polyline id="XMLID_10_" class="st7" points="1492.2,490.6 1425.1,403.2 1426.5,457.6 1492.2,490.6 		"/>
		<polyline id="XMLID_9_" class="st8" points="1492.2,490.6 1426.5,457.6 1381.3,472.3 1492.2,490.6 		"/>
		<polyline id="XMLID_8_" class="st9" points="1425.1,403.2 1426.5,457.6 1381.3,472.3 1425.1,403.2 		"/>
	</g>
	<g id="XMLID_11_">
		<polyline id="XMLID_14_" class="st7" points="861.5,371.3 821.9,319.6 822.7,351.8 861.5,371.3 		"/>
		<polyline id="XMLID_13_" class="st8" points="861.5,371.3 822.7,351.8 795.9,360.5 861.5,371.3 		"/>
		<polyline id="XMLID_12_" class="st9" points="821.9,319.6 822.7,351.8 795.9,360.5 821.9,319.6 		"/>
	</g>
</g>
<g class="st10">
	<path class="st3" d="M1799,927.6H433V-83.6H1799V927.6z M434,926.6H1798V-82.6H434V926.6z"/>
</g>
</svg>
