<?xml version="1.0" encoding="utf-8"?>
<!-- Generator: Adobe Illustrator 19.0.0, SVG Export Plug-In . SVG Version: 6.00 Build 0)  -->
<svg version="1.1" id="隔离模式" xmlns="http://www.w3.org/2000/svg" xmlns:xlink="http://www.w3.org/1999/xlink" x="0px"
	 y="0px" viewBox="409 -94.1 1414 1028" style="enable-background:new 409 -94.1 1414 1028;" xml:space="preserve">
<style type="text/css">
	.st0{opacity:0;enable-background:new    ;}
	.st1{fill:#505868;}
</style>
<g class="st0">
	<path class="st1" d="M1801.4,932.4H435.3V-78.8h1366.1V932.4z M436.3,931.4h1364.1V-77.8H436.3V931.4z"/>
</g>
<g>
	<path class="st1" d="M1268,691.8c0.3-0.5,0.5-0.9,0.9-1.3c0.6-0.9,1.2-1.8,1.7-2.7c0.3-0.5,0.6-1,0.9-1.5c0.5-0.9,1.1-1.7,1.6-2.6
		c0.3-0.5,0.6-1,0.9-1.6c0.5-0.9,1.1-1.8,1.6-2.6c0.3-0.5,0.5-0.9,0.9-1.5c0.6-1,1.2-2.1,1.8-3.2c0.2-0.3,0.4-0.6,0.5-0.9
		c0.8-1.4,1.6-2.7,2.3-4.1c0.2-0.3,0.4-0.7,0.5-1c0.5-1.1,1.2-2.1,1.7-3.2c0.2-0.5,0.5-1,0.8-1.5c0.5-0.9,0.9-1.9,1.4-2.8
		c0.2-0.5,0.5-1.1,0.8-1.6c0.5-0.9,0.9-1.9,1.3-2.7c0.2-0.5,0.5-1,0.8-1.6c0.5-1,0.9-2,1.4-3c0.2-0.5,0.4-0.9,0.6-1.3
		c0.6-1.5,1.3-2.9,1.9-4.4l0,0c0.6-1.4,1.2-2.9,1.9-4.4c0.2-0.5,0.4-0.9,0.5-1.3c0.4-1,0.9-2,1.2-3c0.2-0.5,0.4-1.1,0.6-1.6
		c0.4-0.9,0.8-1.9,1.1-2.9c0.2-0.5,0.4-1.1,0.6-1.6c0.4-1,0.8-1.9,1.1-3c0.2-0.5,0.4-1,0.5-1.5c0.5-1.2,0.9-2.4,1.2-3.6
		c0.1-0.3,0.2-0.5,0.3-0.9c0.5-1.5,1-3,1.5-4.5c0.1-0.4,0.2-0.7,0.3-1.1c0.4-1.2,0.7-2.3,1.1-3.4c0.2-0.5,0.3-1,0.5-1.6
		c0.3-1,0.6-2,0.9-3c0.2-0.5,0.3-1.1,0.5-1.7c0.3-1,0.5-2,0.9-3c0.2-0.5,0.3-1.1,0.5-1.6c0.3-1.1,0.5-2.2,0.9-3.3
		c0.1-0.5,0.2-0.9,0.3-1.3c0.4-1.6,0.8-3.1,1.2-4.6c0-0.1,0.1-0.2,0.1-0.2c0.2-1,0.5-1.9,0.7-3c-7.6-2.3-14.5-6.2-20.2-11.4
		c-0.7,0.3-1.4,0.5-2.1,0.9c-0.5,0.2-1.1,0.4-1.6,0.6c-1.1,0.4-2.1,0.8-3.2,1.2c-0.6,0.2-1.2,0.5-1.9,0.7c-1,0.4-2,0.7-3,1.1
		c-0.6,0.2-1.3,0.5-1.9,0.7c-1,0.3-2,0.7-3,1c-0.6,0.2-1.2,0.4-1.9,0.6c-1.2,0.4-2.3,0.7-3.4,1.1c-0.5,0.2-1,0.3-1.6,0.5
		c-1.6,0.5-3.3,1-4.9,1.5c-0.3,0.1-0.7,0.2-1,0.3c-1.3,0.4-2.6,0.8-4,1.1c-0.6,0.2-1.2,0.3-1.8,0.5c-1.1,0.3-2.2,0.5-3.2,0.9
		c-0.6,0.2-1.3,0.3-1.9,0.5c-1,0.2-2.1,0.5-3.1,0.8c-0.7,0.2-1.3,0.3-2,0.5c-1.1,0.2-2.1,0.5-3.2,0.7c-0.6,0.2-1.2,0.3-1.9,0.4
		c-1.2,0.3-2.5,0.5-3.7,0.8c-0.5,0.1-0.9,0.2-1.3,0.2c-1.7,0.3-3.3,0.7-5.1,1c-0.5,0.1-0.9,0.2-1.3,0.2c-1.2,0.2-2.5,0.5-3.7,0.6
		c-0.6,0.1-1.2,0.2-1.9,0.3c-1.1,0.2-2.2,0.4-3.3,0.5c-0.7,0.1-1.3,0.2-2,0.3c-1.1,0.2-2.1,0.3-3.2,0.5c-0.7,0.1-1.3,0.2-2,0.2
		c-1.1,0.2-2.3,0.3-3.3,0.4c-0.6,0.1-1.2,0.2-1.8,0.2c-1.4,0.2-2.9,0.3-4.3,0.5c-0.3,0-0.6,0.1-0.9,0.1c-1.7,0.2-3.4,0.3-5.1,0.5
		c-0.5,0.1-1,0.1-1.6,0.2c-1.2,0.1-2.4,0.2-3.7,0.3c-0.6,0.1-1.3,0.1-1.9,0.2c-1.1,0.1-2.2,0.2-3.3,0.2c-0.7,0-1.3,0.1-2,0.1
		c-1.1,0.1-2.2,0.1-3.3,0.2c-0.6,0-1.3,0.1-1.9,0.1c-1.2,0-2.3,0.1-3.6,0.1c-0.5,0-1.1,0-1.7,0c-1.7,0-3.5,0.1-5.2,0.1
		c-1.6,0-3.3,0-5-0.1c-0.5,0-1.1,0-1.6,0c-1.2,0-2.3-0.1-3.4-0.1c-0.6,0-1.2-0.1-1.9-0.1c-1.1,0-2.1-0.1-3.2-0.2
		c-0.6,0-1.2-0.1-1.9-0.1c-1.1-0.1-2.2-0.2-3.3-0.2c-0.6,0-1.2-0.1-1.8-0.1c-1.2-0.1-2.5-0.2-3.7-0.2c-0.4,0-0.9-0.1-1.2-0.1
		c-1.6-0.2-3.3-0.3-5-0.5c-0.3,0-0.7-0.1-1-0.1c-1.3-0.2-2.6-0.2-4-0.4c-0.5-0.1-1.1-0.2-1.7-0.2c-1.1-0.2-2.2-0.2-3.3-0.4
		c-0.6-0.1-1.2-0.2-1.8-0.2c-1.1-0.2-2.2-0.3-3.2-0.5c-0.6-0.1-1.2-0.2-1.8-0.2c-1.2-0.2-2.3-0.3-3.4-0.5c-0.5-0.1-1-0.2-1.6-0.2
		c-1.6-0.2-3.1-0.5-4.7-0.8c-0.1,0-0.2,0-0.2-0.1c-1.6-0.3-3.3-0.6-5-0.9c-0.5-0.1-0.9-0.2-1.3-0.2c-1.2-0.2-2.4-0.5-3.6-0.7
		c-0.5-0.1-1.1-0.2-1.7-0.4c-1.1-0.2-2.2-0.5-3.3-0.7c-0.5-0.2-1.2-0.2-1.7-0.4c-1.1-0.2-2.2-0.5-3.3-0.8c-0.5-0.2-1.1-0.2-1.6-0.4
		c-1.2-0.3-2.4-0.6-3.7-0.9c-0.4-0.1-0.8-0.2-1.2-0.3c-1.6-0.4-3.3-0.9-4.9-1.3c-0.2-0.1-0.3-0.1-0.5-0.2c-1.4-0.4-2.9-0.8-4.3-1.2
		c-0.5-0.2-1-0.3-1.5-0.5c-1.1-0.3-2.2-0.6-3.3-1c-0.5-0.2-1.2-0.4-1.7-0.5c-1-0.3-2.1-0.6-3.1-1c-0.5-0.2-1.2-0.4-1.7-0.5
		c-1.1-0.4-2.2-0.7-3.2-1.1c-0.5-0.2-1-0.4-1.6-0.5c-1.3-0.5-2.6-0.9-4-1.4c-0.2-0.1-0.5-0.2-0.8-0.3c-1.6-0.5-3.1-1.2-4.7-1.8
		c-0.4-0.2-0.9-0.3-1.2-0.5c-0.1,0-0.2-0.1-0.2-0.1c-4.7,3.7-10.1,6.6-16,8.5c0.2,0.9,0.4,1.9,0.6,2.8c0.2,0.7,0.3,1.5,0.5,2.2
		c0.4,1.6,0.7,3,1.1,4.6c0.2,0.5,0.2,0.9,0.3,1.4c0.5,1.9,1,4,1.6,5.9c0.2,0.6,0.4,1.2,0.5,1.9c0.4,1.3,0.8,2.7,1.2,4
		c0.2,0.8,0.5,1.6,0.7,2.3c0.4,1.2,0.7,2.4,1.1,3.6c0.2,0.8,0.5,1.6,0.8,2.4c0.4,1.2,0.8,2.3,1.2,3.4c0.3,0.8,0.5,1.6,0.9,2.4
		c0.4,1.2,0.9,2.4,1.2,3.6c0.3,0.8,0.5,1.5,0.9,2.3c0.5,1.4,1.1,2.8,1.6,4.2c0.2,0.5,0.4,1,0.6,1.6c0.8,1.9,1.5,3.7,2.3,5.6
		c0.2,0.6,0.5,1.2,0.8,1.9c0.5,1.2,1.1,2.5,1.6,3.7c0.3,0.8,0.7,1.5,1,2.3c0.5,1.1,1,2.3,1.6,3.3c0.4,0.8,0.7,1.6,1.1,2.3
		c0.5,1.1,1,2.2,1.6,3.3c0.4,0.8,0.8,1.6,1.2,2.3c0.5,1.1,1.2,2.3,1.7,3.3c0.4,0.7,0.7,1.4,1.1,2.1c0.7,1.3,1.4,2.6,2.2,4
		c0.2,0.5,0.5,0.9,0.8,1.4c1,1.8,1.9,3.5,3,5.3c0.3,0.5,0.7,1.2,1,1.7c0.7,1.2,1.4,2.4,2.1,3.6c0.4,0.7,0.9,1.4,1.2,2.1
		c0.6,1.1,1.3,2.1,2,3.2c0.5,0.7,0.9,1.4,1.4,2.2c0.7,1,1.3,2.1,2,3.1c0.5,0.7,0.9,1.4,1.4,2.1c0.7,1.1,1.5,2.2,2.2,3.2
		c0.5,0.6,0.9,1.2,1.3,1.9c0.9,1.3,1.9,2.6,2.8,3.9c0.3,0.4,0.5,0.8,0.9,1.2c1.2,1.6,2.4,3.3,3.7,4.9c0.4,0.5,0.8,1,1.2,1.5
		c0.9,1.2,1.8,2.3,2.6,3.4c0.5,0.6,1,1.2,1.5,1.9c0.8,1,1.6,2,2.5,3c0.5,0.6,1.1,1.2,1.6,1.9c0.9,1,1.6,1.9,2.5,2.9
		c0.5,0.6,1.1,1.2,1.6,1.9c0.9,1,1.8,2,2.6,3c0.5,0.5,1,1.1,1.5,1.6c0.2,0.2,0.3,0.3,0.5,0.5c4.1,0.2,8.2,0.2,12.2,0.2v4.3
		c0.2,0,0.5,0,0.7,0c54.4,0,105.5-14,150-38.7l-3-2C1266.2,694.4,1267,693.2,1268,691.8z"/>
	<path class="st1" d="M860.2,266.7c0,1.7,0,3.3,0.1,5.1c0,0.5,0,1.1,0.1,1.6c0,1.1,0.1,2.3,0.1,3.3c0,0.7,0.1,1.3,0.1,2
		c0.1,1,0.1,2,0.2,3c0,0.7,0.1,1.4,0.1,2.1c0.1,0.9,0.1,1.9,0.2,2.9c0.1,0.7,0.1,1.4,0.2,2.2c0.1,0.9,0.2,1.9,0.2,2.8
		c0.1,0.7,0.2,1.5,0.2,2.2c0.1,0.9,0.2,1.9,0.2,2.8c0.1,0.7,0.2,1.5,0.2,2.2c0.1,0.9,0.2,1.9,0.3,2.8c0.1,0.7,0.2,1.4,0.2,2.2
		c0.1,0.9,0.2,1.9,0.4,2.8c0.1,0.7,0.2,1.4,0.3,2.1c0.2,0.9,0.3,1.9,0.4,2.9c0.1,0.7,0.2,1.3,0.3,2c0.2,1,0.3,2,0.5,3
		c0.1,0.6,0.2,1.2,0.3,1.9c0.2,1.1,0.4,2.2,0.6,3.3c0.1,0.5,0.2,1.1,0.3,1.6c0.2,1.4,0.5,2.9,0.9,4.3c0,0.2,0.1,0.4,0.1,0.5
		c0.3,1.6,0.7,3.3,1,4.8c0.1,0.4,0.2,0.7,0.2,1.1c0.3,1.2,0.5,2.5,0.9,3.7c0.2,0.5,0.2,1.1,0.4,1.6c0.2,1.1,0.5,2.1,0.8,3.2
		c0.2,0.6,0.3,1.2,0.5,1.8c0.2,1,0.5,1.9,0.8,3c0.2,0.6,0.3,1.2,0.5,1.9c0.2,0.9,0.5,1.9,0.8,2.9c0.2,0.6,0.4,1.2,0.5,1.9
		c0.3,0.9,0.5,1.9,0.9,2.8c0.2,0.6,0.4,1.2,0.6,1.9c0.3,0.9,0.6,1.9,0.9,2.8c0.2,0.6,0.4,1.2,0.6,1.9c0.3,0.9,0.6,1.9,0.9,2.8
		c0.2,0.6,0.4,1.2,0.6,1.9c0.3,0.9,0.7,1.9,1,2.9c0.2,0.5,0.4,1.2,0.6,1.7c0.4,1,0.7,2,1.1,3c0.2,0.5,0.4,1.1,0.6,1.6
		c0.4,1.1,0.9,2.2,1.2,3.2c0.2,0.5,0.3,0.9,0.5,1.3c0.5,1.3,1.1,2.6,1.6,4c0.1,0.2,0.2,0.3,0.2,0.5c1.2,3,2.6,6.1,4,9
		c0.2,0.4,0.3,0.7,0.5,1.1c0.5,1.1,1,2.3,1.6,3.3c0.2,0.5,0.5,0.9,0.7,1.4c0.5,1,0.9,2,1.5,3c0.2,0.5,0.5,1,0.8,1.6
		c0.5,0.9,0.9,1.9,1.4,2.8c0.3,0.5,0.5,1.1,0.9,1.6c0.5,0.9,0.9,1.8,1.5,2.7c0.3,0.5,0.6,1.1,0.9,1.6c0.5,0.9,1,1.8,1.5,2.6
		c0.3,0.5,0.6,1.1,0.9,1.6c0.5,0.9,1,1.8,1.6,2.6c0.3,0.5,0.6,1.1,0.9,1.6c0.5,0.9,1.1,1.8,1.6,2.7c0.3,0.5,0.6,1,0.9,1.5
		c0.5,0.9,1.2,1.9,1.7,2.7c0.3,0.5,0.5,0.9,0.9,1.4c0.6,1,1.2,1.9,1.9,3c0.2,0.4,0.5,0.8,0.8,1.2c0.8,1.2,1.5,2.3,2.3,3.4
		c0.2,0.2,0.3,0.5,0.5,0.6c1.9,2.7,3.7,5.5,5.7,8.1c0.2,0.2,0.4,0.5,0.5,0.7c0.8,1.1,1.6,2.1,2.3,3.2c0.3,0.4,0.6,0.8,0.9,1.2
		c0.7,0.9,1.4,1.8,2.1,2.7c0.3,0.5,0.7,0.9,1,1.3c0.6,0.9,1.3,1.7,1.9,2.5c0.4,0.5,0.8,0.9,1.2,1.4c0.6,0.8,1.3,1.6,1.9,2.4
		c0.4,0.5,0.8,0.9,1.2,1.5c0.6,0.8,1.3,1.6,1.9,2.3c0.4,0.5,0.9,0.9,1.2,1.5c0.6,0.8,1.3,1.6,2,2.3c0.4,0.5,0.9,0.9,1.2,1.4
		c0.7,0.8,1.3,1.5,2,2.3c0.4,0.5,0.9,0.9,1.2,1.4c0.7,0.8,1.4,1.6,2.1,2.3c0.4,0.5,0.9,0.9,1.2,1.3c0.8,0.8,1.5,1.6,2.3,2.3
		c0.4,0.4,0.8,0.8,1.2,1.2c0.9,0.9,1.7,1.7,2.6,2.6c0.3,0.3,0.6,0.6,0.9,0.9c1.2,1.2,2.3,2.3,3.5,3.4l0,0c1.2,1.2,2.4,2.3,3.7,3.4
		c0.2,0.2,0.5,0.4,0.7,0.6c1,0.9,1.9,1.8,3,2.6c0.4,0.4,0.8,0.7,1.2,1.1c0.9,0.7,1.6,1.5,2.5,2.2c0.5,0.4,0.9,0.9,1.4,1.2
		c0.8,0.6,1.6,1.3,2.3,1.9c0.5,0.5,1,0.9,1.6,1.3c0.8,0.6,1.5,1.2,2.3,1.9c0.1,0.1,0.1,0.1,0.2,0.2c6.1-7.6,14.2-13.4,23.6-16.7
		c0-0.2,0-0.2,0-0.4c0.1-1,0.2-2.1,0.3-3.1c0.1-0.8,0.2-1.6,0.2-2.4c0.2-1.1,0.2-2.1,0.4-3.2c0.1-0.8,0.2-1.6,0.3-2.3
		c0.2-1.1,0.3-2.2,0.5-3.3c0.1-0.8,0.2-1.5,0.3-2.3c0.2-1.1,0.4-2.2,0.5-3.3c0.1-0.7,0.2-1.5,0.3-2.2c0.2-1.1,0.4-2.3,0.6-3.3
		c0.2-0.7,0.2-1.4,0.4-2.1c0.2-1.2,0.5-2.3,0.6-3.3c0.2-0.7,0.2-1.4,0.4-2.1c0.2-1.2,0.5-2.3,0.7-3.4c0.2-0.6,0.3-1.3,0.4-1.9
		c0.2-1.2,0.5-2.3,0.8-3.5c0.2-0.6,0.3-1.2,0.5-1.9c0.3-1.2,0.5-2.3,0.9-3.5c0.2-0.6,0.3-1.2,0.5-1.9c0.3-1.2,0.6-2.3,0.9-3.5
		c0.2-0.6,0.3-1.2,0.5-1.9c0.3-1.2,0.7-2.4,1-3.6c0.2-0.6,0.3-1.2,0.5-1.8c0.4-1.2,0.7-2.4,1.1-3.6c0.2-0.5,0.3-1.2,0.5-1.7
		c0.4-1.2,0.8-2.3,1.1-3.6c0.2-0.5,0.4-1.2,0.5-1.7c0.4-1.2,0.8-2.3,1.2-3.6c0.2-0.5,0.4-1.2,0.5-1.7c0.4-1.2,0.9-2.4,1.2-3.6
		c0.2-0.5,0.4-1.1,0.6-1.6c0.5-1.2,0.9-2.4,1.3-3.6c0.2-0.5,0.4-1.1,0.6-1.6c0.5-1.2,0.9-2.3,1.3-3.4c0.2-0.5,0.5-1.2,0.7-1.7
		c0.5-1.1,0.9-2.3,1.4-3.3c0.2-0.6,0.5-1.2,0.8-1.8c0.5-1.1,0.9-2.3,1.4-3.3c0.2-0.6,0.5-1.2,0.8-1.8c0.5-1.1,1-2.2,1.5-3.3
		c0.3-0.6,0.5-1.2,0.9-1.8c0.5-1.1,1-2.1,1.5-3.2c0.3-0.6,0.5-1.2,0.9-1.9c0.5-1.1,1.1-2.2,1.6-3.3c0.3-0.5,0.5-1.2,0.9-1.7
		c0.5-1.1,1.1-2.2,1.6-3.3c0.3-0.5,0.5-1.2,0.9-1.7c0.5-1.1,1.2-2.2,1.7-3.2c0.3-0.5,0.6-1.2,0.9-1.7c0.6-1.2,1.3-2.4,2-3.6
		c0.2-0.4,0.5-0.9,0.7-1.2c0.9-1.6,1.9-3.2,2.8-4.8c0.9-1.5,1.7-2.9,2.6-4.4c0.3-0.5,0.5-0.9,0.9-1.4c0.6-1,1.2-1.9,1.9-3
		c0.3-0.5,0.7-1.1,1-1.6c0.5-0.9,1.2-1.8,1.7-2.7c0.4-0.5,0.7-1.1,1.1-1.6c0.6-0.9,1.2-1.8,1.8-2.6c0.4-0.5,0.7-1.1,1.1-1.6
		c0.6-0.9,1.3-1.9,1.9-2.8c0.3-0.5,0.6-0.9,0.9-1.4c0.9-1.2,1.7-2.4,2.6-3.7c0.1-0.2,0.2-0.3,0.3-0.5c1-1.4,2-2.7,3-4
		c0.3-0.4,0.6-0.8,0.9-1.2c0.7-0.9,1.5-1.9,2.2-2.9c0.4-0.5,0.8-0.9,1.2-1.5c0.7-0.9,1.3-1.7,2-2.6c0.4-0.5,0.8-1,1.2-1.6
		c0.7-0.9,1.3-1.6,2-2.5c0.4-0.5,0.8-1,1.2-1.5c0.7-0.9,1.4-1.7,2.2-2.6c0.4-0.5,0.8-0.9,1.1-1.3c0.9-1,1.8-2.1,2.7-3.1
		c0.2-0.2,0.4-0.5,0.6-0.7c1.1-1.2,2.3-2.5,3.4-3.7c0.3-0.3,0.5-0.6,0.9-0.9c0.9-0.9,1.7-1.9,2.6-2.8c0.4-0.5,0.9-0.9,1.2-1.3
		c0.8-0.8,1.5-1.6,2.3-2.3c0.5-0.5,0.9-0.9,1.3-1.4c0.8-0.8,1.5-1.5,2.3-2.3c0.5-0.5,0.9-0.9,1.4-1.3c0.8-0.8,1.6-1.6,2.3-2.3
		c0.4-0.4,0.9-0.9,1.2-1.2c0.9-0.9,1.9-1.8,2.8-2.6c0.3-0.3,0.6-0.5,0.9-0.9c1.2-1.2,2.5-2.3,3.7-3.4c0.2-0.2,0.5-0.5,0.8-0.7
		c1-0.9,1.9-1.8,3-2.6c0.5-0.4,0.9-0.8,1.3-1.2c0.9-0.7,1.7-1.5,2.5-2.2c0.5-0.4,1-0.9,1.5-1.2c0.8-0.7,1.6-1.3,2.4-2
		c0.4-0.3,0.8-0.6,1.2-1c-1.1-4.1-1.6-8.5-1.6-13c0-5.1,0.8-10,2.1-14.6c-0.5-0.2-0.9-0.3-1.3-0.5c-0.5-0.2-1-0.4-1.6-0.5
		c-0.9-0.4-1.9-0.7-2.9-1.1c-0.5-0.2-1.1-0.4-1.6-0.5c-1-0.3-1.9-0.7-3-1c-0.5-0.2-1-0.4-1.6-0.5c-1.1-0.4-2.1-0.7-3.2-1.1
		c-0.5-0.2-0.9-0.3-1.3-0.4c-3-0.9-6.1-1.9-9.1-2.7c-0.4-0.2-0.9-0.2-1.2-0.3c-1.1-0.3-2.2-0.6-3.3-0.9c-0.5-0.2-1.1-0.3-1.6-0.4
		c-1-0.2-2-0.5-3-0.8c-0.5-0.2-1.1-0.3-1.6-0.4c-1-0.2-2-0.5-3-0.7c-0.5-0.2-1.1-0.2-1.6-0.4c-1.1-0.2-2.2-0.5-3.3-0.7
		c-0.5-0.1-0.9-0.2-1.3-0.3c-3.1-0.7-6.2-1.2-9.3-1.9c-0.5-0.1-0.9-0.2-1.3-0.2c-1.1-0.2-2.2-0.4-3.3-0.5c-0.5-0.1-1.1-0.2-1.6-0.2
		c-1-0.2-2-0.3-3-0.5c-0.5-0.1-1.2-0.2-1.7-0.2c-1-0.2-2-0.3-3-0.4c-0.5-0.1-1.2-0.2-1.7-0.2c-1.1-0.2-2.2-0.3-3.3-0.4
		c-0.5-0.1-0.9-0.2-1.4-0.2c-3.1-0.4-6.3-0.7-9.4-0.9c-0.5-0.1-1-0.1-1.5-0.1c-1.1-0.1-2.2-0.2-3.3-0.2c-0.6-0.1-1.2-0.1-1.8-0.1
		c-1-0.1-2-0.2-3-0.2c-0.6,0-1.2-0.1-1.9-0.1c-1-0.1-2-0.1-3-0.2c-0.6,0-1.2-0.1-1.8-0.1c-1.1,0-2.2-0.1-3.3-0.1c-0.5,0-1,0-1.6,0
		c-1.6,0-3.2-0.1-4.7-0.1c-21.9,0-43.8,2.3-65.1,6.9c-27.4,5.9-54,15.5-78.7,28.6l-1-1.9c-2.3,3.3-4.5,6.5-6.7,9.8l1.7,0.1
		C860.2,261,860.2,264,860.2,266.7z"/>
	<path class="st1" d="M1026.2,661.1c-1-2.2-1.9-4.4-2.9-6.5c-0.3-0.7-0.6-1.5-0.9-2.2c-0.6-1.5-1.2-2.9-1.8-4.4
		c-0.4-0.9-0.7-1.8-1-2.6c-0.5-1.3-1-2.6-1.6-4c-0.4-0.9-0.7-1.9-1-2.8c-0.5-1.2-0.9-2.6-1.4-3.8c-0.3-1-0.7-1.9-1-3
		c-0.4-1.2-0.9-2.5-1.2-3.7c-0.3-1-0.6-2-1-3c-0.4-1.2-0.8-2.5-1.2-3.7c-0.3-1-0.6-2-0.9-3.1c-0.4-1.2-0.7-2.5-1.1-3.7
		c-0.3-1-0.5-2.1-0.9-3.1c-0.3-1.2-0.7-2.5-1-3.7c-0.2-1-0.5-2.1-0.8-3.1c-0.3-1.2-0.6-2.5-0.9-3.7c-0.2-1-0.5-2.1-0.7-3.1
		c-0.3-1.2-0.5-2.5-0.9-3.8c-0.2-1-0.5-2.1-0.7-3.1c-0.2-0.6-0.2-1.3-0.4-1.9c-22.8-5.4-39.8-25.8-39.8-50.3c0-2.1,0.2-4.1,0.4-6.2
		c-0.1-0.1-0.2-0.1-0.2-0.2c-0.2-0.2-0.5-0.4-0.8-0.6c-1.2-0.9-2.3-1.8-3.4-2.7c-0.5-0.4-1-0.9-1.6-1.2c-0.9-0.7-1.7-1.4-2.6-2.1
		c-0.5-0.5-1.2-0.9-1.7-1.5c-0.8-0.7-1.6-1.3-2.4-2c-0.6-0.5-1.2-1-1.8-1.6c-0.8-0.6-1.5-1.3-2.3-1.9c-0.6-0.5-1.2-1.1-1.8-1.6
		c-0.7-0.6-1.5-1.3-2.2-1.9c-0.6-0.5-1.2-1.1-1.8-1.6c-0.7-0.6-1.4-1.3-2.1-1.9c-0.6-0.5-1.2-1.2-1.8-1.7c-0.7-0.7-1.4-1.3-2.1-2
		c-0.6-0.5-1.2-1.2-1.8-1.7c-0.7-0.7-1.4-1.3-2-2c-0.6-0.6-1.2-1.2-1.8-1.8c-0.7-0.7-1.3-1.3-2-2c-0.5-0.6-1.2-1.2-1.7-1.8
		c-0.6-0.7-1.3-1.4-1.9-2.1c-0.5-0.6-1.2-1.2-1.7-1.9c-0.6-0.7-1.3-1.4-1.9-2.1c-0.5-0.6-1.1-1.2-1.7-1.9c-0.6-0.7-1.2-1.4-1.9-2.1
		c-0.5-0.6-1.1-1.2-1.6-1.9c-0.6-0.7-1.2-1.5-1.9-2.2c-0.5-0.6-1.1-1.2-1.6-1.9c-0.6-0.7-1.2-1.5-1.9-2.2c-0.5-0.6-1.1-1.2-1.6-1.9
		c-0.6-0.8-1.2-1.5-1.8-2.3c-0.5-0.6-1-1.3-1.6-1.9c-0.6-0.8-1.2-1.6-1.8-2.3c-0.5-0.6-1-1.3-1.5-1.9c-0.6-0.8-1.2-1.6-1.8-2.3
		c-0.5-0.6-0.9-1.3-1.5-1.9c-0.6-0.8-1.2-1.6-1.7-2.4c-0.5-0.6-0.9-1.3-1.4-1.9c-0.6-0.9-1.2-1.6-1.7-2.5c-0.5-0.6-0.9-1.2-1.3-1.9
		c-0.6-0.9-1.2-1.7-1.7-2.6c-0.4-0.6-0.9-1.2-1.2-1.9c-0.6-0.9-1.2-1.8-1.8-2.7c-0.4-0.6-0.8-1.2-1.2-1.8c-0.6-1-1.3-2-1.9-3
		c-0.3-0.5-0.6-1-0.9-1.5c-0.9-1.6-1.9-3-2.8-4.6c-24.9-41.7-40.4-88.3-45.5-136.6c-16.8,38.2-26.2,80.3-26.2,124.6
		c0,154.6,113.3,282.8,261.4,305.9c-16.1-20.1-29.8-41.9-41-65.2C1028.1,665.4,1027.1,663.3,1026.2,661.1z"/>
	<path class="st1" d="M1015.5,187.5c0.6,0,1.2,0,1.8,0.1c1.2,0,2.4,0.1,3.6,0.1c0.7,0,1.4,0.1,2.1,0.1c1.1,0.1,2.2,0.1,3.3,0.2
		c0.8,0,1.5,0.1,2.3,0.2c1,0.1,2.1,0.1,3.1,0.2c0.8,0.1,1.6,0.1,2.3,0.2c1,0.1,2,0.2,3,0.2c0.8,0.1,1.6,0.2,2.4,0.2
		c1,0.1,2,0.2,3,0.2c0.8,0.1,1.6,0.2,2.4,0.2c1,0.1,1.9,0.2,3,0.3c0.8,0.1,1.6,0.2,2.4,0.3c1,0.2,1.9,0.2,3,0.4
		c0.8,0.1,1.6,0.2,2.4,0.3c1,0.2,1.9,0.2,3,0.4c0.8,0.1,1.6,0.2,2.4,0.4c1,0.2,1.9,0.3,3,0.5c0.8,0.2,1.6,0.2,2.4,0.4
		c1,0.2,1.9,0.3,3,0.5c0.8,0.2,1.6,0.3,2.4,0.5c0.9,0.2,1.9,0.4,2.9,0.5c0.8,0.2,1.6,0.3,2.3,0.5c1,0.2,1.9,0.4,3,0.6
		c0.8,0.2,1.6,0.3,2.3,0.5c1,0.2,1.9,0.5,3,0.6c0.8,0.2,1.6,0.3,2.3,0.5c1,0.2,1.9,0.5,3,0.7c0.8,0.2,1.5,0.4,2.3,0.5
		c1,0.2,2,0.5,3,0.8c0.7,0.2,1.5,0.4,2.2,0.5c1,0.3,2,0.5,3,0.9c0.7,0.2,1.4,0.4,2.1,0.6c1,0.3,2.1,0.6,3.1,0.9
		c0.7,0.2,1.3,0.4,2,0.6c1.1,0.3,2.2,0.7,3.3,1c0.6,0.2,1.2,0.4,1.9,0.6c1.2,0.4,2.4,0.8,3.6,1.2c0.5,0.2,1,0.3,1.5,0.5
		c1.6,0.5,3,1.1,4.6,1.6c0.2,0.1,0.3,0.1,0.5,0.2c1.7,0.6,3.4,1.2,5.1,1.9c0.2,0.1,0.5,0.2,0.8,0.3c1.4,0.5,2.8,1.1,4.2,1.6
		c0.5,0.2,1.1,0.4,1.6,0.6c0.2,0.1,0.3,0.1,0.4,0.2c9.2-8.4,21.5-13.5,34.9-13.5c13.7,0,26.2,5.3,35.4,14c0.5-0.2,1.1-0.4,1.6-0.6
		c0.5-0.2,1-0.4,1.6-0.6c1.4-0.5,2.8-1.1,4.3-1.6c0.2-0.1,0.5-0.2,0.8-0.3c1.7-0.6,3.4-1.2,5.1-1.9c0.2-0.1,0.3-0.1,0.5-0.2
		c1.6-0.5,3.1-1.1,4.7-1.6c0.5-0.2,1-0.3,1.5-0.5c1.2-0.4,2.4-0.8,3.6-1.2c0.6-0.2,1.2-0.4,1.9-0.5c1.1-0.3,2.2-0.7,3.3-1
		c0.7-0.2,1.3-0.4,2-0.6c1-0.3,2.1-0.6,3.1-0.9c0.7-0.2,1.4-0.4,2.1-0.6c1-0.3,2-0.5,3-0.9c0.7-0.2,1.5-0.4,2.2-0.5
		c1-0.2,2-0.5,3-0.8c0.8-0.2,1.5-0.4,2.3-0.5c1-0.2,1.9-0.5,3-0.7c0.8-0.2,1.6-0.4,2.3-0.5c1-0.2,1.9-0.5,3-0.6
		c0.8-0.2,1.6-0.3,2.3-0.5c1-0.2,1.9-0.4,3-0.6c0.8-0.2,1.6-0.3,2.3-0.5c1-0.2,1.9-0.4,3-0.5c0.8-0.2,1.6-0.3,2.3-0.5
		c1-0.2,1.9-0.3,3-0.5c0.8-0.2,1.6-0.2,2.4-0.4c1-0.2,1.9-0.3,3-0.5c0.8-0.2,1.6-0.2,2.4-0.4c1-0.2,1.9-0.3,3-0.4
		c0.8-0.1,1.6-0.2,2.4-0.3c1-0.2,1.9-0.2,3-0.4c0.8-0.1,1.6-0.2,2.4-0.3c1-0.1,1.9-0.2,3-0.3c0.8-0.1,1.6-0.2,2.4-0.2
		c1-0.1,2-0.2,3-0.2c0.8-0.1,1.6-0.2,2.4-0.2c1-0.1,2-0.2,3-0.2c0.8-0.1,1.6-0.1,2.3-0.2c1-0.1,2.1-0.2,3.1-0.2
		c0.6,0,1.2-0.1,1.8-0.1c-53.5-44.1-122.2-70.7-197-70.7c-84.2,0-160.6,33.6-216.4,88.2c34.7-11.8,71.4-17.9,108.2-17.9
		C1011.9,187.5,1013.7,187.5,1015.5,187.5z"/>
	<path class="st1" d="M1419.3,489.4c-0.5,0.5-1,1.1-1.5,1.7s-1.1,1.2-1.6,1.8c-0.5,0.5-1,1.1-1.6,1.6s-1.1,1.2-1.6,1.7
		s-1,1.1-1.6,1.6s-1.1,1.2-1.6,1.7s-1.1,1.1-1.6,1.6s-1.1,1.1-1.6,1.7c-0.5,0.5-1.1,1.1-1.6,1.6s-1.1,1.1-1.7,1.6
		c-0.5,0.5-1.1,1.1-1.6,1.6s-1.2,1.1-1.7,1.6s-1.1,1-1.6,1.6s-1.2,1.1-1.8,1.6c-0.5,0.5-1.1,1-1.6,1.6c-0.6,0.5-1.2,1.1-1.8,1.6
		c-0.5,0.5-1.1,1-1.6,1.5c-0.6,0.5-1.2,1.1-1.9,1.6c-0.5,0.5-1.1,0.9-1.6,1.4c-0.8,0.6-1.6,1.3-2.3,1.9c-0.7,0.6-1.4,1.2-2.1,1.8
		c-0.9,0.8-1.8,1.5-2.6,2.3c-0.5,0.4-1,0.9-1.6,1.2c-0.7,0.5-1.4,1.1-2.1,1.7c-0.4,0.3-0.9,0.7-1.2,1c0.8,3.5,1.2,7.2,1.2,10.9
		c0,24.1-16.4,44.2-38.6,50.1c-0.2,1.2-0.5,2.3-0.8,3.5c-0.1,0.4-0.2,0.8-0.2,1.2c-0.3,1.4-0.6,2.8-0.9,4.1
		c-0.2,0.6-0.3,1.2-0.4,1.8c-0.3,1.2-0.5,2.3-0.9,3.5c-0.2,0.6-0.3,1.3-0.5,1.9c-0.3,1.1-0.5,2.2-0.9,3.3c-0.2,0.7-0.4,1.4-0.5,2.1
		c-0.3,1-0.5,2.1-0.9,3.1c-0.2,0.7-0.4,1.5-0.6,2.2c-0.3,1-0.6,2-0.9,3c-0.2,0.7-0.5,1.5-0.7,2.2c-0.3,1-0.6,1.9-0.9,3
		c-0.2,0.8-0.5,1.5-0.7,2.3c-0.3,0.9-0.6,1.9-1,2.9c-0.2,0.8-0.5,1.5-0.8,2.3c-0.3,0.9-0.7,1.9-1,2.9c-0.2,0.8-0.5,1.5-0.9,2.3
		c-0.3,0.9-0.7,1.9-1,2.8c-0.3,0.8-0.5,1.5-0.9,2.3c-0.4,0.9-0.7,1.9-1.1,2.8c-0.3,0.8-0.6,1.5-0.9,2.3c-0.4,0.9-0.8,1.9-1.1,2.7
		c-0.3,0.8-0.6,1.5-0.9,2.3c-0.4,0.9-0.8,1.8-1.2,2.7c-0.3,0.8-0.6,1.5-1,2.3c-0.4,0.9-0.8,1.8-1.2,2.7c-0.3,0.8-0.7,1.5-1,2.3
		c-0.4,0.9-0.9,1.8-1.2,2.6c-0.2,0.5-0.4,0.9-0.6,1.3c55.7-44.9,95.4-108.8,109.5-181.8c-0.5,0.5-0.9,1.1-1.4,1.6
		C1420.3,488.2,1419.8,488.8,1419.3,489.4z"/>
	<path class="st1" d="M1315.9,485.4c-0.1-0.9-0.2-1.8-0.3-2.7c-0.1-0.8-0.2-1.6-0.3-2.3c-0.2-0.9-0.2-1.8-0.4-2.6
		c-0.1-0.8-0.2-1.6-0.4-2.3c-0.2-0.9-0.3-1.8-0.4-2.6c-0.2-0.8-0.2-1.5-0.4-2.3c-0.2-0.9-0.3-1.8-0.5-2.6c-0.2-0.8-0.3-1.5-0.4-2.3
		c-0.2-0.9-0.3-1.8-0.5-2.6c-0.2-0.8-0.3-1.5-0.5-2.3c-0.2-0.9-0.4-1.8-0.5-2.6c-0.2-0.8-0.3-1.5-0.5-2.3c-0.2-0.9-0.4-1.7-0.6-2.6
		c-0.2-0.8-0.4-1.5-0.5-2.3c-0.2-0.9-0.4-1.7-0.6-2.6c-0.2-0.7-0.4-1.5-0.5-2.2c-0.2-0.9-0.5-1.7-0.7-2.6c-0.2-0.7-0.4-1.5-0.6-2.2
		c-0.2-0.9-0.5-1.7-0.7-2.6c-0.2-0.7-0.4-1.5-0.6-2.2c-0.2-0.9-0.5-1.7-0.8-2.6c-0.2-0.7-0.5-1.5-0.7-2.2c-0.2-0.9-0.5-1.7-0.8-2.6
		c-0.2-0.7-0.5-1.4-0.7-2.2c-0.3-0.9-0.5-1.7-0.9-2.6c-0.2-0.7-0.5-1.4-0.7-2.1c-0.3-0.9-0.6-1.7-0.9-2.6c-0.2-0.7-0.5-1.4-0.8-2.1
		c-0.3-0.9-0.6-1.7-0.9-2.6c-0.2-0.7-0.5-1.4-0.8-2.1c-0.3-0.9-0.6-1.7-1-2.6c-0.2-0.7-0.5-1.4-0.8-2c-0.3-0.9-0.7-1.7-1-2.6
		c-0.3-0.7-0.5-1.3-0.9-2c-0.4-0.9-0.7-1.7-1.1-2.6c-0.3-0.7-0.5-1.3-0.9-2c-0.4-0.9-0.8-1.7-1.2-2.6c-0.3-0.6-0.6-1.3-0.9-1.9
		c-0.4-0.9-0.8-1.7-1.2-2.6c-0.3-0.6-0.6-1.3-0.9-1.9c-0.4-0.9-0.9-1.7-1.2-2.6c-0.3-0.6-0.6-1.2-0.9-1.9c-0.4-0.9-0.9-1.7-1.3-2.6
		c-0.3-0.6-0.6-1.2-0.9-1.9c-0.5-0.9-0.9-1.7-1.3-2.6c-0.3-0.6-0.6-1.2-0.9-1.8c-0.5-0.9-0.9-1.7-1.4-2.6c-0.3-0.6-0.6-1.2-0.9-1.8
		c-0.5-0.9-0.9-1.7-1.5-2.6c-0.3-0.5-0.6-1.2-1-1.7c-0.5-0.9-1-1.7-1.6-2.6c-0.3-0.5-0.6-1.1-1-1.6c-0.5-0.9-1.1-1.8-1.6-2.6
		c-0.3-0.5-0.6-1.1-0.9-1.6c-0.5-0.9-1.2-1.8-1.7-2.7c-0.3-0.5-0.6-1-0.9-1.5c-0.6-0.9-1.2-1.9-1.8-2.8c-0.3-0.5-0.6-0.9-0.9-1.3
		c-0.6-1-1.3-1.9-1.9-3c-0.2-0.4-0.5-0.8-0.8-1.2c-0.7-1.1-1.5-2.1-2.2-3.1c-0.2-0.3-0.4-0.6-0.6-0.9c-0.9-1.2-1.8-2.5-2.7-3.7
		c-0.1-0.1-0.2-0.2-0.2-0.3c-3-4-6-7.9-9.2-11.8c-0.2-0.2-0.3-0.3-0.4-0.5c-0.9-1.1-1.8-2.2-2.7-3.3c-0.2-0.3-0.5-0.6-0.8-0.9
		c-0.8-0.9-1.6-1.9-2.4-2.8c-0.3-0.4-0.7-0.8-1-1.2c-0.8-0.9-1.5-1.7-2.3-2.6c-0.4-0.4-0.8-0.9-1.2-1.2c-0.7-0.8-1.5-1.6-2.2-2.4
		c-0.4-0.5-0.9-0.9-1.2-1.3c-0.7-0.8-1.4-1.6-2.2-2.3c-0.5-0.5-0.9-0.9-1.3-1.4c-0.7-0.7-1.4-1.5-2.1-2.2c-0.5-0.5-0.9-0.9-1.4-1.4
		c-0.7-0.7-1.4-1.4-2.1-2.1c-0.5-0.5-1-0.9-1.5-1.4c-0.7-0.7-1.4-1.3-2.1-2c-0.5-0.5-1-0.9-1.6-1.4c-0.7-0.6-1.4-1.3-2.1-1.9
		c-0.5-0.5-1.1-0.9-1.6-1.4c-0.7-0.6-1.4-1.2-2.1-1.9c-0.5-0.5-1.1-0.9-1.6-1.5c-0.7-0.6-1.4-1.2-2.1-1.9c-0.5-0.5-1.1-0.9-1.7-1.4
		c-0.5-0.5-1.1-0.9-1.6-1.3c-9.4,9.6-22.5,15.6-37,15.6c-14.1,0-26.9-5.7-36.2-14.8c-0.2,0.2-0.5,0.4-0.7,0.5
		c-0.5,0.5-1.2,0.9-1.7,1.5c-0.7,0.6-1.4,1.2-2.1,1.8c-0.5,0.5-1.1,0.9-1.6,1.5c-0.7,0.6-1.4,1.2-2.1,1.9c-0.5,0.5-1.1,1-1.6,1.5
		c-0.7,0.6-1.4,1.2-2.1,1.9c-0.5,0.5-1.1,1-1.6,1.5c-0.7,0.6-1.4,1.3-2,1.9c-0.5,0.5-1,1-1.6,1.5c-0.7,0.7-1.4,1.3-2.1,2
		c-0.5,0.5-1,0.9-1.5,1.5c-0.7,0.7-1.4,1.4-2.1,2.1c-0.5,0.5-0.9,0.9-1.4,1.5c-0.7,0.7-1.4,1.5-2.1,2.2c-0.5,0.5-0.9,0.9-1.3,1.4
		c-0.7,0.8-1.4,1.6-2.1,2.3c-0.4,0.5-0.9,0.9-1.2,1.3c-0.7,0.9-1.5,1.6-2.2,2.5c-0.4,0.4-0.7,0.9-1.1,1.2c-0.8,0.9-1.6,1.8-2.3,2.7
		c-0.3,0.4-0.6,0.7-0.9,1.1c-0.9,1-1.7,2-2.6,3.1c-0.2,0.2-0.4,0.5-0.6,0.7c-3.1,3.9-6.2,7.8-9.2,11.8c-0.2,0.2-0.2,0.3-0.4,0.5
		c-0.9,1.2-1.7,2.3-2.6,3.5c-0.2,0.3-0.5,0.7-0.7,1c-0.7,1-1.4,2-2.1,3c-0.3,0.4-0.5,0.9-0.9,1.2c-0.6,0.9-1.2,1.9-1.9,2.8
		c-0.3,0.5-0.6,0.9-0.9,1.4c-0.6,0.9-1.2,1.8-1.8,2.7c-0.3,0.5-0.6,1-1,1.6c-0.5,0.9-1.1,1.7-1.6,2.6c-0.3,0.5-0.7,1.1-1,1.6
		c-0.5,0.9-1.1,1.7-1.6,2.6c-0.3,0.5-0.7,1.2-1,1.7c-0.5,0.9-1,1.7-1.5,2.6c-0.3,0.6-0.7,1.2-1,1.8c-0.5,0.9-0.9,1.7-1.4,2.5
		c-0.3,0.6-0.7,1.2-1,1.8c-0.5,0.9-0.9,1.7-1.4,2.5c-0.3,0.6-0.6,1.2-1,1.9c-0.5,0.9-0.9,1.6-1.3,2.5c-0.3,0.6-0.6,1.2-0.9,1.9
		c-0.4,0.9-0.9,1.6-1.2,2.5c-0.3,0.6-0.6,1.3-0.9,1.9c-0.4,0.9-0.8,1.6-1.2,2.5c-0.3,0.6-0.6,1.3-0.9,1.9c-0.4,0.9-0.8,1.6-1.2,2.5
		c-0.3,0.7-0.6,1.3-0.9,2c-0.4,0.9-0.8,1.6-1.1,2.5c-0.3,0.7-0.6,1.3-0.9,2c-0.4,0.9-0.7,1.7-1.1,2.5c-0.3,0.7-0.5,1.4-0.9,2
		c-0.3,0.9-0.7,1.7-1,2.5c-0.3,0.7-0.5,1.4-0.9,2.1c-0.3,0.9-0.6,1.7-1,2.5c-0.2,0.7-0.5,1.4-0.8,2.1c-0.3,0.9-0.6,1.7-0.9,2.6
		c-0.2,0.7-0.5,1.4-0.8,2.1c-0.3,0.9-0.6,1.7-0.9,2.6c-0.2,0.7-0.5,1.4-0.7,2.2c-0.3,0.9-0.5,1.7-0.9,2.6c-0.2,0.7-0.5,1.4-0.7,2.2
		c-0.3,0.9-0.5,1.7-0.8,2.6c-0.2,0.7-0.5,1.5-0.7,2.2c-0.2,0.9-0.5,1.7-0.8,2.6c-0.2,0.7-0.5,1.5-0.6,2.2c-0.2,0.9-0.5,1.7-0.7,2.6
		c-0.2,0.7-0.4,1.5-0.6,2.2c-0.2,0.9-0.5,1.7-0.7,2.6c-0.2,0.8-0.4,1.5-0.5,2.3c-0.2,0.9-0.4,1.7-0.6,2.6c-0.2,0.8-0.4,1.5-0.5,2.3
		c-0.2,0.9-0.4,1.7-0.6,2.6c-0.2,0.8-0.3,1.5-0.5,2.3c-0.2,0.9-0.4,1.7-0.5,2.6c-0.2,0.8-0.3,1.5-0.5,2.3c-0.2,0.9-0.3,1.7-0.5,2.6
		c-0.2,0.8-0.3,1.6-0.5,2.3c-0.2,0.9-0.3,1.8-0.5,2.6c-0.2,0.8-0.2,1.6-0.4,2.3c-0.2,0.9-0.3,1.8-0.4,2.6c-0.2,0.8-0.2,1.6-0.4,2.3
		c-0.2,0.9-0.2,1.8-0.4,2.6c-0.1,0.8-0.2,1.6-0.3,2.3c-0.2,0.9-0.2,1.8-0.3,2.7c-0.1,0.8-0.2,1.6-0.3,2.3c0,0.1,0,0.2,0,0.3
		c23.4,5,40.9,25.8,40.9,50.6c0,6.3-1.2,12.4-3.2,18c0.6,0.2,1.2,0.5,1.9,0.7c0.5,0.2,1.2,0.4,1.7,0.6c1.5,0.5,3,1,4.5,1.6
		c0.5,0.2,1.2,0.4,1.7,0.5c0.9,0.3,1.9,0.6,2.9,0.9c0.7,0.2,1.3,0.4,2,0.6c0.9,0.2,1.7,0.5,2.6,0.8c0.7,0.2,1.4,0.4,2.2,0.6
		c0.9,0.2,1.6,0.5,2.5,0.7c0.7,0.2,1.5,0.4,2.2,0.6c0.8,0.2,1.6,0.5,2.4,0.6c0.8,0.2,1.5,0.4,2.3,0.5c0.8,0.2,1.6,0.4,2.4,0.6
		c0.8,0.2,1.5,0.4,2.3,0.5c0.8,0.2,1.6,0.4,2.4,0.5c0.8,0.2,1.6,0.3,2.3,0.5c0.8,0.2,1.6,0.4,2.4,0.5c0.8,0.2,1.6,0.3,2.3,0.5
		c0.8,0.2,1.6,0.3,2.4,0.5c0.8,0.2,1.6,0.3,2.3,0.5c0.7,0.2,1.6,0.3,2.4,0.5s1.6,0.3,2.3,0.4c0.8,0.2,1.6,0.3,2.4,0.4
		c0.8,0.2,1.6,0.2,2.3,0.4c0.9,0.2,1.6,0.2,2.5,0.4c0.8,0.1,1.6,0.2,2.3,0.3c0.9,0.2,1.6,0.2,2.5,0.3c0.8,0.1,1.5,0.2,2.3,0.3
		c0.9,0.1,1.7,0.2,2.5,0.3c0.8,0.1,1.5,0.2,2.3,0.2c0.9,0.1,1.7,0.2,2.6,0.2c0.8,0.1,1.5,0.2,2.3,0.2c0.9,0.1,1.7,0.2,2.6,0.2
		c0.7,0.1,1.5,0.2,2.2,0.2c0.9,0.1,1.8,0.2,2.6,0.2c0.7,0.1,1.5,0.1,2.2,0.2c0.9,0.1,1.8,0.1,2.7,0.2c0.7,0,1.4,0.1,2.1,0.1
		c0.9,0.1,1.9,0.1,2.9,0.1c0.6,0,1.3,0.1,1.9,0.1c1.1,0,2.2,0.1,3.2,0.1c0.5,0,1.1,0,1.6,0c1.6,0,3.2,0,4.8,0c1.7,0,3.3,0,5.1-0.1
		c0.5,0,1.1,0,1.6-0.1c1.1,0,2.3-0.1,3.3-0.1c0.7,0,1.3-0.1,2-0.1c1-0.1,2-0.1,3-0.2c0.7,0,1.4-0.1,2.1-0.2c0.9-0.1,1.9-0.1,2.9-0.2
		c0.7-0.1,1.5-0.1,2.2-0.2c0.9-0.1,1.9-0.2,2.8-0.2c0.8-0.1,1.5-0.2,2.3-0.2c0.9-0.1,1.9-0.2,2.8-0.2c0.8-0.1,1.5-0.2,2.3-0.2
		c0.9-0.1,1.8-0.2,2.7-0.3c0.8-0.1,1.5-0.2,2.3-0.2c0.9-0.1,1.8-0.2,2.7-0.3c0.8-0.1,1.5-0.2,2.3-0.3c0.9-0.2,1.8-0.2,2.7-0.4
		c0.8-0.1,1.5-0.2,2.3-0.3c0.9-0.2,1.8-0.3,2.6-0.4c0.8-0.2,1.5-0.2,2.3-0.4c0.9-0.2,1.8-0.3,2.6-0.5c0.8-0.2,1.5-0.2,2.3-0.4
		c0.9-0.2,1.8-0.3,2.6-0.5c0.8-0.2,1.5-0.3,2.3-0.5c0.9-0.2,1.8-0.4,2.6-0.5c0.7-0.2,1.5-0.3,2.2-0.5c0.9-0.2,1.8-0.4,2.7-0.6
		c0.7-0.2,1.5-0.3,2.2-0.5c0.9-0.2,1.8-0.5,2.7-0.6c0.7-0.2,1.4-0.4,2.1-0.5c0.9-0.2,1.8-0.5,2.7-0.7c0.7-0.2,1.4-0.4,2.1-0.5
		c0.9-0.2,1.9-0.5,2.7-0.8c0.7-0.2,1.3-0.4,2-0.5c0.9-0.3,1.9-0.5,2.8-0.9c0.6-0.2,1.3-0.4,1.9-0.5c1-0.3,1.9-0.6,3-0.9
		c0.6-0.2,1.2-0.4,1.8-0.5c1.1-0.4,2.2-0.7,3.2-1.1c0.5-0.2,1-0.3,1.5-0.5c1.3-0.5,2.7-0.9,4-1.4c0.2-0.1,0.5-0.2,0.6-0.2
		c0.8-0.3,1.5-0.5,2.3-0.9c-1.3-4.6-2.1-9.5-2.1-14.6c0-25.5,18.5-46.6,42.7-50.9c-0.1-0.9-0.2-1.6-0.2-2.5
		C1316.2,486.9,1316.1,486.1,1315.9,485.4z"/>
	<path class="st1" d="M1343.3,215c-0.1,0-0.2,0-0.3,0c-3.7-0.2-7.4-0.2-11-0.2c-1.6,0-3.2,0-4.7,0.1c-0.5,0-1,0-1.6,0
		c-1.1,0-2.2,0.1-3.3,0.1c-0.6,0-1.2,0.1-1.8,0.1c-1,0-2,0.1-3,0.2c-0.6,0-1.2,0.1-1.9,0.1c-1,0.1-2,0.1-3,0.2
		c-0.6,0-1.2,0.1-1.8,0.1c-1.1,0.1-2.2,0.2-3.3,0.2c-0.5,0-1,0.1-1.5,0.1c-3.2,0.2-6.3,0.5-9.4,0.9c-0.5,0.1-0.9,0.1-1.4,0.2
		c-1.1,0.2-2.2,0.2-3.3,0.4c-0.5,0.1-1.1,0.2-1.7,0.2c-1,0.2-2,0.3-3,0.4c-0.5,0.1-1.2,0.2-1.7,0.2c-1,0.2-2,0.3-3,0.5
		c-0.5,0.1-1.1,0.2-1.6,0.2c-1.1,0.2-2.3,0.4-3.3,0.5c-0.5,0.1-0.9,0.2-1.3,0.2c-3.1,0.5-6.2,1.2-9.3,1.9c-0.4,0.1-0.9,0.2-1.2,0.3
		c-1.1,0.2-2.3,0.5-3.3,0.8c-0.5,0.2-1.1,0.2-1.6,0.4c-1,0.2-2,0.5-3,0.7c-0.5,0.2-1.1,0.2-1.6,0.4c-1,0.2-2,0.5-3,0.8
		c-0.5,0.2-1,0.2-1.6,0.4c-1.1,0.3-2.3,0.6-3.3,0.9c-0.4,0.1-0.8,0.2-1.2,0.3c-3,0.9-6.1,1.8-9.1,2.7c-0.4,0.2-0.9,0.3-1.2,0.4
		c-1.1,0.4-2.2,0.7-3.3,1.1c-0.5,0.2-1,0.3-1.6,0.5c-1,0.3-1.9,0.7-3,1c-0.5,0.2-1.1,0.4-1.6,0.5c-1,0.4-1.9,0.7-3,1.1
		c-0.5,0.2-1,0.4-1.5,0.5c-0.9,0.4-1.9,0.7-2.8,1.1c1.2,4.4,1.9,9.2,1.9,14.1c0,4-0.5,8-1.4,11.8c0.3,0.3,0.7,0.5,1,0.9
		c0.5,0.4,1,0.9,1.6,1.2c0.8,0.7,1.6,1.3,2.4,2c0.5,0.4,1,0.9,1.5,1.2c0.9,0.7,1.7,1.4,2.5,2.2c0.5,0.4,0.9,0.8,1.3,1.2
		c1,0.9,1.9,1.7,3,2.6c0.3,0.2,0.5,0.5,0.9,0.7c1.2,1.2,2.5,2.3,3.7,3.4c0.3,0.3,0.6,0.5,0.9,0.9c0.9,0.9,1.9,1.8,2.8,2.6
		c0.5,0.4,0.9,0.9,1.3,1.2c0.8,0.8,1.6,1.6,2.3,2.3c0.5,0.5,0.9,0.9,1.4,1.4c0.8,0.8,1.5,1.5,2.3,2.3c0.5,0.5,0.9,0.9,1.3,1.4
		c0.8,0.8,1.5,1.6,2.3,2.3c0.4,0.5,0.9,0.9,1.2,1.3c0.9,0.9,1.7,1.8,2.6,2.7c0.3,0.3,0.6,0.6,0.9,0.9c1.2,1.2,2.3,2.5,3.4,3.7
		c0.2,0.2,0.4,0.5,0.6,0.7c0.9,1,1.8,2,2.7,3.1c0.4,0.5,0.8,0.9,1.2,1.3c0.7,0.9,1.4,1.7,2.2,2.6c0.4,0.5,0.9,1,1.2,1.5
		c0.7,0.8,1.3,1.6,2,2.5c0.4,0.5,0.9,1,1.2,1.6c0.7,0.9,1.3,1.7,2,2.6c0.4,0.5,0.8,1,1.2,1.5c0.7,0.9,1.5,1.9,2.2,2.9
		c0.3,0.4,0.6,0.8,0.9,1.2c1,1.3,2,2.7,3,4c0.1,0.2,0.2,0.3,0.3,0.5c0.9,1.2,1.7,2.4,2.6,3.7c0.3,0.5,0.6,0.9,0.9,1.4
		c0.6,0.9,1.3,1.9,1.9,2.8c0.4,0.5,0.7,1.1,1.1,1.6c0.6,0.9,1.2,1.8,1.8,2.6c0.4,0.5,0.7,1.1,1.1,1.6c0.5,0.9,1.2,1.8,1.7,2.6
		c0.3,0.5,0.7,1.1,1,1.6c0.6,1,1.2,1.9,1.8,3c0.3,0.5,0.5,0.9,0.9,1.4c0.9,1.5,1.8,2.9,2.6,4.4c0.9,1.6,1.9,3.2,2.8,4.7
		c0.3,0.5,0.6,1.1,0.9,1.6c0.6,1.1,1.2,2.2,1.8,3.2c0.3,0.6,0.7,1.2,1,1.9c0.5,1,1.1,1.9,1.6,3c0.4,0.7,0.7,1.4,1.1,2.1
		c0.5,0.9,1,1.9,1.5,2.9c0.4,0.7,0.7,1.5,1.1,2.2c0.5,0.9,0.9,1.9,1.4,2.8c0.4,0.8,0.7,1.5,1.1,2.3c0.5,0.9,0.9,1.8,1.3,2.7
		c0.4,0.8,0.7,1.6,1,2.3c0.4,0.9,0.9,1.8,1.2,2.7c0.3,0.8,0.7,1.6,1,2.3c0.4,0.9,0.8,1.8,1.2,2.7c0.3,0.8,0.6,1.6,1,2.3
		c0.4,0.9,0.8,1.8,1.1,2.7c0.3,0.8,0.6,1.6,0.9,2.4c0.4,0.9,0.7,1.8,1.1,2.7c0.3,0.8,0.6,1.6,0.9,2.4c0.3,0.9,0.7,1.8,1,2.7
		c0.3,0.8,0.6,1.6,0.9,2.4c0.3,0.9,0.6,1.8,0.9,2.7c0.3,0.9,0.5,1.6,0.9,2.5c0.3,0.9,0.6,1.8,0.9,2.7c0.3,0.9,0.5,1.6,0.8,2.5
		s0.6,1.9,0.9,2.7c0.2,0.9,0.5,1.6,0.8,2.5s0.5,1.9,0.9,2.7c0.2,0.9,0.5,1.7,0.7,2.5c0.2,0.9,0.5,1.9,0.8,2.8
		c0.2,0.9,0.5,1.7,0.7,2.6s0.5,1.9,0.7,2.8s0.5,1.7,0.6,2.6c0.2,0.9,0.5,1.9,0.7,2.8s0.4,1.7,0.6,2.6s0.5,1.9,0.6,2.8
		c0.2,0.9,0.4,1.7,0.5,2.6c0.2,0.9,0.4,1.9,0.6,2.8s0.4,1.7,0.5,2.6c0.2,0.9,0.4,1.9,0.5,2.8c0.2,0.9,0.3,1.7,0.5,2.6
		s0.3,1.9,0.5,2.8s0.3,1.7,0.5,2.6s0.3,1.9,0.5,2.8s0.2,1.7,0.4,2.6c0.2,0.9,0.3,1.9,0.4,2.9c0.2,0.9,0.2,1.7,0.4,2.6
		c0.2,0.9,0.2,1.9,0.4,2.8c0.1,0.9,0.2,1.8,0.3,2.6c0.1,0.9,0.2,1.9,0.3,2.9c0.1,0.9,0.2,1.8,0.2,2.6c0.1,0.8,0.2,1.6,0.2,2.4
		c7.2,2.8,13.7,7.2,18.9,12.7c1.6-1.2,3.1-2.6,4.6-3.8c0.3-0.2,0.6-0.5,0.9-0.8c3.3-2.8,6.5-5.7,9.6-8.6c0.3-0.3,0.6-0.5,0.9-0.9
		c1.6-1.4,3-2.9,4.5-4.3c0.2-0.2,0.5-0.5,0.8-0.8c1.4-1.4,2.9-2.8,4.3-4.3c0.2-0.2,0.2-0.2,0.4-0.4c1.5-1.5,3-3,4.4-4.6
		c0.3-0.3,0.5-0.6,0.9-0.9c1.4-1.6,2.8-3.1,4.2-4.7c0.2-0.2,0.4-0.5,0.5-0.6c1.3-1.5,2.6-3,3.9-4.4c0.2-0.2,0.4-0.5,0.5-0.7
		c1.3-1.6,2.6-3.2,4-4.8c0.2-0.3,0.5-0.7,0.8-1c1.3-1.6,2.6-3.3,3.9-5c0.1-0.2,0.2-0.3,0.3-0.5c1.2-1.6,2.4-3.2,3.6-4.8
		c0.2-0.3,0.5-0.6,0.7-0.9c1.2-1.6,2.4-3.3,3.7-5.1c0.2-0.3,0.5-0.7,0.7-1c1.2-1.7,2.4-3.5,3.6-5.3l2.7,1.9
		c0.2-4.2,0.2-8.4,0.2-12.7c0-82.4-32.2-157.3-84.6-212.7L1343.3,215L1343.3,215z"/>
</g>
</svg>
