<?xml version="1.0" encoding="utf-8"?>
<!-- Generator: Adobe Illustrator 19.0.0, SVG Export Plug-In . SVG Version: 6.00 Build 0)  -->
<svg version="1.1" id="隔离模式" xmlns="http://www.w3.org/2000/svg" xmlns:xlink="http://www.w3.org/1999/xlink" x="0px"
	 y="0px" viewBox="409 -94.1 1414 1028" style="enable-background:new 409 -94.1 1414 1028;" xml:space="preserve">
<style type="text/css">
	.st0{opacity:0;enable-background:new    ;}
	.st1{fill:#505868;}
	.st2{opacity:0.7;}
	.st3{opacity:0.5;}
	.st4{fill:#424649;}
</style>
<g class="st0">
	<path class="st1" d="M1809.4,934.4H443.3V-76.8h1366.1V934.4z M444.3,933.4h1364.1V-75.8H444.3V933.4z"/>
</g>
<g>
	<g id="XMLID_1_">
		<g id="XMLID_15_">
			<path id="XMLID_38_" class="st1" d="M682.7,750c5.5,3.5,23.1,5.6,50.3,6.8h393.3h393.3c27.2-1.2,44.8-3.4,50.3-6.8
				c6.8-4.1,5.1-8.8,5.1-8.8L1492.7,622c-9.5-14.4-42.3-14.4-42.3-14.4h-324H802.3c0,0-32.9,0-42.3,14.4l-82.3,119.2
				C677.7,741.1,675.9,746,682.7,750z"/>
		</g>
		<g id="XMLID_24_">
			<path id="XMLID_36_" class="st1" d="M1572.9,769.8c-6.2,1.9-12.8,6-47.1,6.1h-399.5H726.9c-34.2-0.2-40.8-4.2-47.1-6.1
				c-9.1-2.8-10.2-7-10.3-8.4v13.7c0,2.2,1.2,4.3,3,5.5c5.5,3.5,20.1,8.7,54.3,8.9h141.7c5.2,5.5,12.6,8.8,20.8,8.8
				s15.5-3.4,20.7-8.8h216.3H1343c5.2,5.5,12.6,8.8,20.8,8.8s15.5-3.4,20.7-8.8h141.4c34.2-0.2,48.8-5.5,54.3-8.9
				c1.9-1.2,3-3.3,3-5.5v-13.7C1583.1,762.8,1582,767,1572.9,769.8z"/>
		</g>
	</g>
	<g id="XMLID_381_" class="st2">
		<path id="XMLID_384_" class="st1" d="M724.6,648.2L697.7,685c-1.2,1.7-3.2,2.7-5.3,2.7h-17c-3.6,0-6.5-2.9-6.5-6.5V65.9
			c0-4.9,5.3-8.1,9.6-5.8l43.9,23.7c2.1,1.2,3.5,3.4,3.5,5.8v554.8C725.9,645.7,725.4,647.1,724.6,648.2z"/>
		<path id="XMLID_383_" class="st1" d="M1528.1,648.2L1555,685c1.2,1.7,3.2,2.7,5.3,2.7h17c3.6,0,6.5-2.9,6.5-6.5V65.9
			c0-4.9-5.3-8.1-9.6-5.8l-43.9,23.7c-2.1,1.2-3.5,3.4-3.5,5.8v554.8C1526.9,645.7,1527.4,647.1,1528.1,648.2z"/>
	</g>
	<g id="XMLID_372_" class="st3">
		<path id="XMLID_377_" class="st4" d="M915.5,581.5c0,3.4-2.7,6.1-6.1,6.1h-21.8H869c-3.4,0-6.1-2.8-6.1-6.1l4.2-516.1
			c0-3.3,2.7-6,6.1-6h32.1c3.3,0,6,2.7,6.1,6L915.5,581.5z"/>
		<path id="XMLID_375_" class="st4" d="M1389.9,581.5c0,3.4-2.7,6.1-6.1,6.1H1362h-18.7c-3.4,0-6.1-2.8-6.1-6.1l4.2-516.1
			c0-3.3,2.7-6,6.1-6h32.1c3.3,0,6,2.7,6.1,6L1389.9,581.5z"/>
	</g>
</g>
</svg>
